<svg xmlns="http://www.w3.org/2000/svg" viewBox="0 0 650 380" role="img" aria-label="Fresh tokens">

<style>
.axis { stroke: #64748b; stroke-width: 1; }
.gridline { stroke: #e2e8f0; stroke-width: 1; }
.svg-title { text-anchor: middle; font: 700 17px -apple-system, BlinkMacSystemFont, 'Segoe UI', sans-serif; fill: #17202a; }
.axis-label { text-anchor: middle; font: 12px -apple-system, BlinkMacSystemFont, 'Segoe UI', sans-serif; fill: #5c6773; }
.small-label { font: 11px -apple-system, BlinkMacSystemFont, 'Segoe UI', sans-serif; fill: #17202a; }
.tick { text-anchor: middle; font: 11px -apple-system, BlinkMacSystemFont, 'Segoe UI', sans-serif; fill: #5c6773; }
.right { text-anchor: end; }
.legend { font: 12px -apple-system, BlinkMacSystemFont, 'Segoe UI', sans-serif; fill: #5c6773; }
</style>
<text x="300" y="24" class="svg-title">Fresh tokens</text><text x="110" y="52" class="axis-label">GPT-5.4</text><text x="470" y="52" class="axis-label">Opus 4.6</text><line x1="140" y1="60" x2="140" y2="355" class="axis"/><line x1="500" y1="60" x2="500" y2="355" class="axis"/><line x1="140" y1="317.4" x2="500" y2="304.3" stroke="#16a34a" stroke-width="3"/><circle cx="140" cy="317.4" r="5" fill="#16a34a"/><circle cx="500" cy="304.3" r="5" fill="#16a34a"/><text x="12" y="333.3" class="small-label">Codex 37K</text><text x="512" y="308.3" class="small-label">57K</text><line x1="140" y1="298.3" x2="500" y2="315.1" stroke="#dc2626" stroke-width="3"/><circle cx="140" cy="298.3" r="5" fill="#dc2626"/><circle cx="500" cy="315.1" r="5" fill="#dc2626"/><text x="12" y="317.3" class="small-label">OMP 66K</text><text x="512" y="324.3" class="small-label">40K</text><line x1="140" y1="258.2" x2="500" y2="285.2" stroke="#f59e0b" stroke-width="3"/><circle cx="140" cy="258.2" r="5" fill="#f59e0b"/><circle cx="500" cy="285.2" r="5" fill="#f59e0b"/><text x="12" y="262.2" class="small-label">OpenCode 127K</text><text x="512" y="289.2" class="small-label">86K</text><line x1="140" y1="272.0" x2="500" y2="60.0" stroke="#7c3aed" stroke-width="3"/><circle cx="140" cy="272.0" r="5" fill="#7c3aed"/><circle cx="500" cy="60.0" r="5" fill="#7c3aed"/><text x="12" y="278.2" class="small-label">Claude Code 106K</text><text x="512" y="64.0" class="small-label">429K</text><line x1="140" y1="297.3" x2="500" y2="340.0" stroke="#0891b2" stroke-width="3"/><circle cx="140" cy="297.3" r="5" fill="#0891b2"/><circle cx="500" cy="340.0" r="5" fill="#0891b2"/><text x="12" y="301.3" class="small-label">Droid 68K</text><text x="512" y="344.0" class="small-label">3K</text></svg>
