<svg xmlns="http://www.w3.org/2000/svg" aria-label="Feature quality score" role="img" viewBox="0 0 650 380"><style>.axis{stroke:#64748b;stroke-width:1}.axis-label,.svg-title{text-anchor:middle}.svg-title{font:700 17px -apple-system,BlinkMacSystemFont,&apos;Segoe UI&apos;,sans-serif;fill:#17202a}.axis-label{font:12px -apple-system,BlinkMacSystemFont,&apos;Segoe UI&apos;,sans-serif;fill:#5c6773}.small-label{font:11px -apple-system,BlinkMacSystemFont,&apos;Segoe UI&apos;,sans-serif;fill:#17202a}</style><text x="300" y="24" class="svg-title">Feature quality score</text><text x="110" y="52" class="axis-label">GPT-5.4</text><text x="470" y="52" class="axis-label">Opus 4.6</text><line x1="140" x2="140" y1="60" y2="355" class="axis"/><line x1="500" x2="500" y1="60" y2="355" class="axis"/><line x1="140" x2="500" y1="116" y2="60" stroke="#16a34a" stroke-width="3"/><circle cx="140" cy="116" r="5" fill="#16a34a"/><circle cx="500" cy="60" r="5" fill="#16a34a"/><text x="12" y="120" class="small-label">Codex 83/100</text><text x="512" y="64" class="small-label">100/100</text><line x1="140" x2="500" y1="116" y2="116" stroke="#dc2626" stroke-width="3"/><circle cx="140" cy="116" r="5" fill="#dc2626"/><circle cx="500" cy="116" r="5" fill="#dc2626"/><text x="12" y="136" class="small-label">OMP 83/100</text><text x="512" y="120" class="small-label">83/100</text><line x1="140" x2="500" y1="256" y2="172" stroke="#f59e0b" stroke-width="3"/><circle cx="140" cy="256" r="5" fill="#f59e0b"/><circle cx="500" cy="172" r="5" fill="#f59e0b"/><text x="12" y="260" class="small-label">OpenCode 42/100</text><text x="512" y="176" class="small-label">67/100</text><line x1="140" x2="500" y1="284" y2="340" stroke="#7c3aed" stroke-width="3"/><circle cx="140" cy="284" r="5" fill="#7c3aed"/><circle cx="500" cy="340" r="5" fill="#7c3aed"/><text x="12" y="288" class="small-label">Claude Code 33/100</text><text x="512" y="344" class="small-label">17/100</text><line x1="140" x2="500" y1="340" y2="228" stroke="#0891b2" stroke-width="3"/><circle cx="140" cy="340" r="5" fill="#0891b2"/><circle cx="500" cy="228" r="5" fill="#0891b2"/><text x="12" y="344" class="small-label">Droid 17/100</text><text x="512" y="232" class="small-label">50/100</text></svg>